<?xml version="1.0" encoding="UTF-8" standalone="no"?><svg xmlns:svg="http://www.w3.org/2000/svg" xmlns="http://www.w3.org/2000/svg" xmlns:xlink="http://www.w3.org/1999/xlink" version="1.0" width="64px" height="64px" viewBox="0 0 128 128" xml:space="preserve"><g><path d="M50.7 67.54a13.67 13.67 0 1 1 16.75 9.66 13.67 13.67 0 0 1-16.74-9.66zm15.7-2.04l-1.05-3.86-3.86 1.03 1 3.86z" fill="#ffffff"/><path d="M40.9 32.37a58.08 58.08 0 0 1 23.6 14.38 22.92 22.92 0 0 0-9.27 2.47c-3.45 1.97-5.9 6.14-5.9 6.14S45.68 45.26 36.53 40c-11.1-6.4-28.06-8.22-28.06-8.22s16.56-4.14 32.45.6zM78.7 72.8s3.63 10.1 12.77 15.38c11.1 6.4 28.07 8.2 28.07 8.2s-16.56 4.15-32.45-.58a58.1 58.1 0 0 1-23.6-14.38 22.92 22.92 0 0 0 9.26-2.47c3.45-1.97 5.9-6.14 5.9-6.14z" fill="#ffffff"/></g></svg>